{
  "accessors": [
    {
      "bufferView": 2,
      "componentType": 5126,
      "count": 410,
      "max": [
        0.30719104409217834,
        3.887601852416992,
        2.253633975982666
      ],
      "min": [
        -1.0648778676986694,
        -3.8664255142211914,
        -2.252737045288086
      ],
      "type": "VEC3"
    },
    {
      "bufferView": 2,
      "byteOffset": 4920,
      "componentType": 5126,
      "count": 410,
      "max": [
        1.0,
        1.0,
        1.0
      ],
      "min": [
        -1.0,
        -1.0,
        -1.0
      ],
      "type": "VEC3"
    },
    {
      "bufferView": 1,
      "componentType": 5126,
      "count": 410,
      "max": [
        0.9942829608917236,
        0.9603772163391113
      ],
      "min": [
        0.005716964602470398,
        0.005716964602470398
      ],
      "type": "VEC2"
    },
    {
      "bufferView": 1,
      "byteOffset": 3280,
      "componentType": 5126,
      "count": 410,
      "max": [
        0.875,
        1.0
      ],
      "min": [
        0.125,
        0.0
      ],
      "type": "VEC2"
    },
    {
      "bufferView": 0,
      "componentType": 5125,
      "count": 618,
      "type": "SCALAR"
    },
    {
      "bufferView": 2,
      "byteOffset": 9840,
      "componentType": 5126,
      "count": 2094,
      "max": [
        -21.913908004760742,
        0.9905622005462646,
        2.0364561080932617
      ],
      "min": [
        -24.426332473754883,
        -0.9905626773834229,
        0.12444503605365753
      ],
      "type": "VEC3"
    },
    {
      "bufferView": 2,
      "byteOffset": 34968,
      "componentType": 5126,
      "count": 2094,
      "max": [
        0.9988266825675964,
        0.9993970394134521,
        0.9988477230072021
      ],
      "min": [
        -0.9877337217330933,
        -0.9993973970413208,
        -0.9992883205413818
      ],
      "type": "VEC3"
    },
    {
      "bufferView": 1,
      "byteOffset": 6560,
      "componentType": 5126,
      "count": 2094,
      "max": [
        0.0,
        0.0
      ],
      "min": [
        0.0,
        0.0
      ],
      "type": "VEC2"
    },
    {
      "bufferView": 0,
      "byteOffset": 2472,
      "componentType": 5125,
      "count": 12552,
      "type": "SCALAR"
    },
    {
      "bufferView": 2,
      "byteOffset": 60096,
      "componentType": 5126,
      "count": 64,
      "max": [
        0.4272952973842621,
        4.210211277008057,
        2.577214241027832
      ],
      "min": [
        -0.9784562587738037,
        -3.8739187717437744,
        -2.5650148391723633
      ],
      "type": "VEC3"
    },
    {
      "bufferView": 2,
      "byteOffset": 60864,
      "componentType": 5126,
      "count": 64,
      "max": [
        0.9424599409103394,
        1.0,
        1.0
      ],
      "min": [
        -1.0,
        -1.0,
        -1.0
      ],
      "type": "VEC3"
    },
    {
      "bufferView": 1,
      "byteOffset": 23312,
      "componentType": 5126,
      "count": 64,
      "max": [
        0.9457282423973083,
        0.9441463947296143
      ],
      "min": [
        0.005717039108276367,
        0.005716800689697266
      ],
      "type": "VEC2"
    },
    {
      "bufferView": 1,
      "byteOffset": 23824,
      "componentType": 5126,
      "count": 64,
      "max": [
        0.875,
        1.0
      ],
      "min": [
        0.125,
        0.0
      ],
      "type": "VEC2"
    },
    {
      "bufferView": 0,
      "byteOffset": 52680,
      "componentType": 5125,
      "count": 96,
      "type": "SCALAR"
    }
  ],
  "asset": {
    "extras": {
      "author": "KimbellWhatley (https://sketchfab.com/KimbellWhatley)",
      "license": "CC-BY-4.0 (http://creativecommons.org/licenses/by/4.0/)",
      "source": "https://sketchfab.com/3d-models/realistic-static-door-70001eef94d04ab1a311c90fa9ac3bfc",
      "title": "Realistic Static Door"
    },
    "generator": "Sketchfab-15.20.0",
    "version": "2.0"
  },
  "bufferViews": [
    {
      "buffer": 0,
      "byteLength": 53064,
      "name": "floatBufferViews",
      "target": 34963
    },
    {
      "buffer": 0,
      "byteLength": 24336,
      "byteOffset": 53064,
      "byteStride": 8,
      "name": "floatBufferViews",
      "target": 34962
    },
    {
      "buffer": 0,
      "byteLength": 61632,
      "byteOffset": 77400,
      "byteStride": 12,
      "name": "floatBufferViews",
      "target": 34962
    }
  ],
  "buffers": [
    {
      "byteLength": 139032,
      "uri": "scene.bin"
    }
  ],
  "extensionsUsed": [
    "KHR_materials_specular",
    "KHR_texture_transform"
  ],
  "images": [
    {
      "uri": "textures/Wood_baseColor.png"
    },
    {
      "uri": "textures/Wood_metallicRoughness.png"
    }
  ],
  "materials": [
    {
      "doubleSided": true,
      "extensions": {
        "KHR_materials_specular": {
          "specularColorFactor": [
            1.0,
            1.0,
            1.0
          ],
          "specularFactor": 0.16920731707317074
        }
      },
      "name": "Wood",
      "pbrMetallicRoughness": {
        "baseColorTexture": {
          "index": 0
        },
        "metallicFactor": 0.0,
        "metallicRoughnessTexture": {
          "index": 1,
          "texCoord": 1
        }
      }
    },
    {
      "doubleSided": true,
      "extensions": {
        "KHR_materials_specular": {
          "specularColorFactor": [
            1.0,
            1.0,
            1.0
          ],
          "specularFactor": 0.5533536585365854
        }
      },
      "name": "Gold",
      "pbrMetallicRoughness": {
        "baseColorTexture": {
          "extensions": {
            "KHR_texture_transform": {
              "offset": [
                -0.12038590604026844,
                0
              ]
            }
          },
          "index": 0
        },
        "roughnessFactor": 0.118304234208192
      }
    },
    {
      "doubleSided": true,
      "extensions": {
        "KHR_materials_specular": {
          "specularColorFactor": [
            1.0,
            1.0,
            1.0
          ],
          "specularFactor": 0.32164634146341464
        }
      },
      "name": "Material",
      "pbrMetallicRoughness": {
        "baseColorTexture": {
          "index": 0
        },
        "metallicFactor": 0.0,
        "roughnessFactor": 0.8211145618000169
      }
    }
  ],
  "meshes": [
    {
      "name": "Object_0",
      "primitives": [
        {
          "attributes": {
            "NORMAL": 1,
            "POSITION": 0,
            "TEXCOORD_0": 2,
            "TEXCOORD_1": 3
          },
          "indices": 4,
          "material": 0,
          "mode": 4
        }
      ]
    },
    {
      "name": "Object_1",
      "primitives": [
        {
          "attributes": {
            "NORMAL": 6,
            "POSITION": 5,
            "TEXCOORD_0": 7
          },
          "indices": 8,
          "material": 1,
          "mode": 4
        }
      ]
    },
    {
      "name": "Object_2",
      "primitives": [
        {
          "attributes": {
            "NORMAL": 10,
            "POSITION": 9,
            "TEXCOORD_0": 11,
            "TEXCOORD_1": 12
          },
          "indices": 13,
          "material": 2,
          "mode": 4
        }
      ]
    }
  ],
  "nodes": [
    {
      "children": [
        1
      ],
      "matrix": [
        1.0,
        0.0,
        0.0,
        0.0,
        0.0,
        2.220446049250313e-16,
        -1.0,
        0.0,
        0.0,
        1.0,
        2.220446049250313e-16,
        0.0,
        0.0,
        0.0,
        0.0,
        1.0
      ],
      "name": "Sketchfab_model"
    },
    {
      "children": [
        2
      ],
      "name": "root"
    },
    {
      "children": [
        3,
        5,
        7
      ],
      "matrix": [
        1.0,
        0.0,
        0.0,
        0.0,
        0.0,
        2.220446049250313e-16,
        1.0,
        0.0,
        0.0,
        -1.0,
        2.220446049250313e-16,
        0.0,
        0.0,
        0.0,
        0.0,
        1.0
      ],
      "name": "GLTF_SceneRootNode"
    },
    {
      "children": [
        4
      ],
      "name": "Cube_0"
    },
    {
      "mesh": 0,
      "name": "Object_4"
    },
    {
      "children": [
        6
      ],
      "matrix": [
        0.10646871477365494,
        0.0,
        0.0,
        0.0,
        0.0,
        0.1885853409767151,
        0.0,
        0.0,
        0.0,
        0.0,
        0.1885853409767151,
        0.0,
        2.8267314434051514,
        0.0,
        -1.941287875175476,
        1.0
      ],
      "name": "Sphere_3"
    },
    {
      "mesh": 1,
      "name": "Object_6"
    },
    {
      "children": [
        8
      ],
      "name": "Cube.001_4"
    },
    {
      "mesh": 2,
      "name": "Object_8"
    }
  ],
  "samplers": [
    {
      "magFilter": 9729,
      "minFilter": 9987,
      "wrapS": 10497,
      "wrapT": 10497
    }
  ],
  "scene": 0,
  "scenes": [
    {
      "name": "Sketchfab_Scene",
      "nodes": [
        0
      ]
    }
  ],
  "textures": [
    {
      "sampler": 0,
      "source": 0
    },
    {
      "sampler": 0,
      "source": 1
    }
  ]
}
